<?xml version="1.0" encoding="utf-8"?>

<!DOCTYPE svg PUBLIC "-//W3C//DTD SVG 1.1//EN" "http://www.w3.org/Graphics/SVG/1.1/DTD/svg11.dtd">
<!-- Uploaded to: SVG Repo, www.svgrepo.com, Generator: SVG Repo Mixer Tools -->
<svg version="1.1" id="_x32_" xmlns="http://www.w3.org/2000/svg" xmlns:xlink="http://www.w3.org/1999/xlink" 
	 viewBox="0 0 512 512"  xml:space="preserve">
<style type="text/css">
	.st0{fill:#000000;}
</style>
<g>
	<path class="st0" d="M256.001,226.93c-35.532,0-64.438,28.904-64.438,64.436c0,35.53,28.906,64.434,64.438,64.434
		c35.529,0,64.434-28.904,64.434-64.434C320.435,255.834,291.53,226.93,256.001,226.93z"/>
	<rect x="290.864" y="38.648" class="st0" width="144.204" height="54.666"/>
	<path class="st0" d="M440.599,114.603h-20.197H276.198H71.401C32.129,114.603,0,146.732,0,186.006v215.946
		c0,39.27,32.129,71.401,71.401,71.401h369.198c39.272,0,71.401-32.131,71.401-71.401V186.006
		C512,146.732,479.871,114.603,440.599,114.603z M88.817,241.732c-20.199,0-36.572-16.375-36.572-36.571
		c0-20.199,16.373-36.574,36.572-36.574c20.197,0,36.57,16.375,36.57,36.574C125.387,225.357,109.014,241.732,88.817,241.732z
		 M256.001,392.374c-55.698,0-101.008-45.313-101.008-101.008s45.311-101.008,101.008-101.008
		c55.694,0,101.006,45.312,101.006,101.008S311.695,392.374,256.001,392.374z"/>
</g>
</svg>